<?xml version="1.0" standalone="no"?>
<!DOCTYPE svg PUBLIC "-//W3C//DTD SVG 1.1//EN" "http://www.w3.org/Graphics/SVG/1.1/DTD/svg11.dtd">
<svg width="800px" height="800px" version="1.1" xmlns="http://www.w3.org/2000/svg" xmlns:xlink="http://www.w3.org/1999/xlink" xml:space="preserve" style="fill-rule:evenodd;clip-rule:evenodd;stroke-linecap:round;stroke-linejoin:round;stroke-miterlimit:1.41421;">
    <g>
        <g id="Layer1">
            <g id="Layer11">
                <g>
                    <path d="M240.475,348.814C231.055,328.507 226.344,309.561 226.344,291.975C226.344,272.087 232.206,253.612 243.93,236.55C255.653,219.488 270.569,205.723 288.678,195.256C306.787,184.788 325.576,179.554 345.046,179.554C366.818,179.554 384.979,185.573 399.529,197.611C414.079,209.649 421.354,224.041 421.354,240.789C421.354,253.35 417.847,264.969 410.834,275.646C403.821,286.323 396.441,291.661 388.695,291.661C384.927,291.661 383.043,289.673 383.043,285.695C383.043,284.229 384.089,280.985 386.183,275.96C389.533,267.796 391.207,259.526 391.207,251.152C391.207,238.591 386.078,228.385 375.82,220.535C365.562,212.684 353.21,208.759 338.765,208.759C315.527,208.759 293.807,218.337 273.605,237.492C253.403,256.648 243.302,278.577 243.302,303.28C243.302,314.376 244.767,323.744 247.698,331.386C250.629,339.027 253.298,343.999 255.706,346.302C258.113,348.605 261.515,349.756 265.911,349.756C294.802,349.756 309.247,358.13 309.247,374.878C309.247,379.065 307.729,383.043 304.693,386.811C301.658,390.579 297.209,392.463 291.347,392.463C284.858,392.463 276.588,388.172 266.539,379.588C255.863,370.377 245.395,365.771 235.137,365.771C221.948,365.771 209.439,372.313 197.611,385.398C185.783,398.482 179.869,414.026 179.869,432.031C179.869,466.992 197.245,500.017 231.997,531.105C266.749,562.194 309.98,577.738 361.689,577.738C410.677,577.738 452.599,565.543 487.456,541.154C522.313,516.765 539.741,487.613 539.741,453.698C539.741,431.088 531.158,411.462 513.991,394.819C496.824,378.175 473.587,369.854 444.278,369.854C420.621,369.854 399.529,376.343 381.001,389.323C362.474,402.303 353.21,418.527 353.21,437.997C353.21,449.721 356.56,459.351 363.259,466.887C369.958,474.424 376.867,478.192 383.985,478.192C392.149,478.192 396.232,473.796 396.232,465.003L395.918,461.235C395.708,458.513 395.604,456.629 395.604,455.582C395.604,446.371 398.116,438.782 403.14,432.816C408.165,426.849 414.55,423.866 422.296,423.866C429.623,423.866 436.008,426.43 441.451,431.56C446.894,436.689 449.616,443.859 449.616,453.07C449.616,466.259 445.063,477.25 435.956,486.043C426.849,494.836 415.178,499.232 400.942,499.232C383.985,499.232 369.383,493.213 357.136,481.175C344.889,469.138 338.765,454.326 338.765,436.741C338.765,410.991 349.547,387.544 371.11,366.399C392.673,345.255 431.821,334.683 488.555,334.683C539.427,334.683 576.377,327.67 599.406,313.643C622.434,299.826 633.949,278.786 633.949,250.524C633.949,233.776 628.82,220.011 618.561,209.23C608.303,198.448 595.324,193.058 579.622,193.058C571.876,193.058 566.067,194.157 562.194,196.355C558.321,198.553 556.384,201.955 556.384,206.561C556.384,209.492 558.269,213.679 562.037,219.122C566.852,226.03 569.259,232.729 569.259,239.219C569.259,246.965 566.276,253.769 560.31,259.631C554.343,265.493 546.964,268.424 538.171,268.424C527.703,268.424 519.748,265.074 514.305,258.375C508.862,251.676 506.14,243.825 506.14,234.823C506.14,220.587 513.101,207.817 527.023,196.512C540.945,185.207 558.687,179.554 580.25,179.554C602.441,179.554 620.917,187.667 635.676,203.891C650.435,220.116 657.814,239.638 657.814,262.457C657.814,284.02 651.482,303.699 638.816,321.494C626.15,339.289 610.135,351.85 590.77,359.177C571.405,366.504 544.242,370.796 509.281,372.052C542.777,395.708 559.525,426.064 559.525,463.119C559.525,490.963 549.267,517.864 528.75,543.823C508.234,569.783 483.374,589.043 454.169,601.604C424.965,614.165 389.323,620.446 347.244,620.446C313.12,620.446 285.486,616.73 264.341,609.298C243.197,601.866 223.047,591.032 203.891,576.796C184.736,562.56 169.663,545.132 158.672,524.511C147.681,503.89 142.186,481.751 142.186,458.095C142.186,429.204 150.455,404.92 166.993,385.241C183.532,365.562 208.026,353.42 240.475,348.814" style="fill:none;stroke-width:12.5px;stroke:rgb(239,78,53);"/>
                    <path d="M240.475,348.814C231.055,328.507 226.344,309.561 226.344,291.975C226.344,272.087 232.206,253.612 243.93,236.55C255.653,219.488 270.569,205.723 288.678,195.256C306.787,184.788 325.576,179.554 345.046,179.554C366.818,179.554 384.979,185.573 399.529,197.611C414.079,209.649 421.354,224.041 421.354,240.789C421.354,253.35 417.847,264.969 410.834,275.646C403.821,286.323 396.441,291.661 388.695,291.661C384.927,291.661 383.043,289.673 383.043,285.695C383.043,284.229 384.089,280.985 386.183,275.96C389.533,267.796 391.207,259.526 391.207,251.152C391.207,238.591 386.078,228.385 375.82,220.535C365.562,212.684 353.21,208.759 338.765,208.759C315.527,208.759 293.807,218.337 273.605,237.492C253.403,256.648 243.302,278.577 243.302,303.28C243.302,314.376 244.767,323.744 247.698,331.386C250.629,339.027 253.298,343.999 255.706,346.302C258.113,348.605 261.515,349.756 265.911,349.756C294.802,349.756 309.247,358.13 309.247,374.878C309.247,379.065 307.729,383.043 304.693,386.811C301.658,390.579 297.209,392.463 291.347,392.463C284.858,392.463 276.588,388.172 266.539,379.588C255.863,370.377 245.395,365.771 235.137,365.771C221.948,365.771 209.439,372.313 197.611,385.398C185.783,398.482 179.869,414.026 179.869,432.031C179.869,466.992 197.245,500.017 231.997,531.105C266.749,562.194 309.98,577.738 361.689,577.738C410.677,577.738 452.599,565.543 487.456,541.154C522.313,516.765 539.741,487.613 539.741,453.698C539.741,431.088 531.158,411.462 513.991,394.819C496.824,378.175 473.587,369.854 444.278,369.854C420.621,369.854 399.529,376.343 381.001,389.323C362.474,402.303 353.21,418.527 353.21,437.997C353.21,449.721 356.56,459.351 363.259,466.887C369.958,474.424 376.867,478.192 383.985,478.192C392.149,478.192 396.232,473.796 396.232,465.003L395.918,461.235C395.708,458.513 395.604,456.629 395.604,455.582C395.604,446.371 398.116,438.782 403.14,432.816C408.165,426.849 414.55,423.866 422.296,423.866C429.623,423.866 436.008,426.43 441.451,431.56C446.894,436.689 449.616,443.859 449.616,453.07C449.616,466.259 445.063,477.25 435.956,486.043C426.849,494.836 415.178,499.232 400.942,499.232C383.985,499.232 369.383,493.213 357.136,481.175C344.889,469.138 338.765,454.326 338.765,436.741C338.765,410.991 349.547,387.544 371.11,366.399C392.673,345.255 431.821,334.683 488.555,334.683C539.427,334.683 576.377,327.67 599.406,313.643C622.434,299.826 633.949,278.786 633.949,250.524C633.949,233.776 628.82,220.011 618.561,209.23C608.303,198.448 595.324,193.058 579.622,193.058C571.876,193.058 566.067,194.157 562.194,196.355C558.321,198.553 556.384,201.955 556.384,206.561C556.384,209.492 558.269,213.679 562.037,219.122C566.852,226.03 569.259,232.729 569.259,239.219C569.259,246.965 566.276,253.769 560.31,259.631C554.343,265.493 546.964,268.424 538.171,268.424C527.703,268.424 519.748,265.074 514.305,258.375C508.862,251.676 506.14,243.825 506.14,234.823C506.14,220.587 513.101,207.817 527.023,196.512C540.945,185.207 558.687,179.554 580.25,179.554C602.441,179.554 620.917,187.667 635.676,203.891C650.435,220.116 657.814,239.638 657.814,262.457C657.814,284.02 651.482,303.699 638.816,321.494C626.15,339.289 610.135,351.85 590.77,359.177C571.405,366.504 544.242,370.796 509.281,372.052C542.777,395.708 559.525,426.064 559.525,463.119C559.525,490.963 549.267,517.864 528.75,543.823C508.234,569.783 483.374,589.043 454.169,601.604C424.965,614.165 389.323,620.446 347.244,620.446C313.12,620.446 285.486,616.73 264.341,609.298C243.197,601.866 223.047,591.032 203.891,576.796C184.736,562.56 169.663,545.132 158.672,524.511C147.681,503.89 142.186,481.751 142.186,458.095C142.186,429.204 150.455,404.92 166.993,385.241C183.532,365.562 208.026,353.42 240.475,348.814" style="fill:rgb(239,78,53);fill-rule:nonzero;"/>
                </g>
            </g>
        </g>
    </g>
</svg>
