<?xml version="1.0" standalone="no"?>
<!DOCTYPE svg PUBLIC "-//W3C//DTD SVG 1.1//EN" "http://www.w3.org/Graphics/SVG/1.1/DTD/svg11.dtd">
<svg width="800px" height="800px" version="1.1" xmlns="http://www.w3.org/2000/svg" xmlns:xlink="http://www.w3.org/1999/xlink" xml:space="preserve" style="fill-rule:evenodd;clip-rule:evenodd;stroke-linejoin:round;stroke-miterlimit:1.41421;">
    <g>
        <g id="background">
            <g id="Layer1">
                <g id="red">
                    <rect x="0" y="2.27374e-13" width="800" height="800" style="fill:rgb(44,144,198);"/>
                </g>
            </g>
            <g id="Layer2">
                <g id="Layer11">
                    <g id="red1">
                        <rect x="0" y="2.27374e-13" width="800" height="800" style="fill:rgb(50,149,106);"/>
                    </g>
                </g>
            </g>
        </g>
        <g id="symbol">
            <path id="ampersand" d="M347.245,626.695C317.298,626.67 286.417,623.84 257.813,614.381C220.144,601.925 182.277,575.209 161.265,541.044C131.302,492.323 123.287,421.879 165.626,377.322C170.753,371.926 179.433,364.424 185.942,360.804C202.254,351.733 213.113,347.427 231.498,343.957C231.498,343.957 231.163,343.104 230.99,342.68C230.795,342.198 230.601,341.716 230.409,341.233C219.408,313.376 216.536,281.934 227.291,253.519C247.346,200.534 308.979,166.278 364.109,174.909C385.075,178.191 406.783,190.374 418.078,208.652C433.083,232.936 429.747,268.277 408.797,288.281C401.023,295.704 376.521,305.404 376.801,286.253C376.873,281.31 378.734,277.682 380.543,273.238C380.636,273.005 380.729,272.771 380.821,272.538C383.519,265.569 386.06,254.346 385.043,246.415C381.861,221.589 349.763,212.738 328.798,215.657C292.722,220.681 261.332,249.642 251.768,284.585C247.673,299.55 248.787,315.607 253.925,330.155C255.833,335.558 258.471,343.355 265.606,343.503C266.29,343.512 266.975,343.509 267.66,343.516C278.712,343.657 287.021,344.62 297.426,348.568C315.511,355.431 323.386,387.085 302.908,396.434C287.385,403.521 272.85,393.043 261.528,383.532C261.221,383.276 260.913,383.022 260.604,382.77C253.955,377.401 247.623,374.275 239.298,372.327C218.282,367.411 198.484,389.274 191.016,406.336C183.922,422.542 185.076,442.597 190.604,459.067C196.509,476.657 200.311,484.064 210.781,499.368C258.195,568.671 355.558,584.258 431.446,561.594C466.249,551.2 502.261,530.305 521.113,498.111C526.908,488.215 529.862,480.519 532.116,469.271C533.701,461.362 534.116,451.134 532.788,443.151C525.054,396.648 476.252,369.86 431.405,376.808C402.372,381.305 368.802,394.742 360.857,426.127C357.602,438.985 359.995,453.236 368.628,463.504C372.753,468.41 389.749,477.824 389.979,465.32L389.98,465.245C389.98,465.245 389.671,461.6 389.545,459.776C388.599,445.643 393.096,431.752 404.671,422.972C421.671,410.076 451.662,421.796 454.781,443.059C455.537,448.211 456.236,453.468 455.731,458.651C455.239,463.706 453.837,468.714 451.828,473.378C431.687,520.131 364.027,511.835 341.684,471.621C317.163,427.487 344.136,367.223 388.064,346.787C420.26,331.808 455.86,328.541 490.902,328.428C491.678,328.424 492.453,328.418 493.229,328.412C501.65,328.329 510.072,328.016 518.479,327.51C524.749,327.133 531.029,326.689 537.242,325.763C570.431,320.814 616.247,310.577 624.966,271.815C630.189,248.599 626.907,214.368 601.089,203.934C588.864,198.994 582.448,198.464 569.42,200.056C562.573,200.893 561.906,206.453 564.499,211.495C565.305,213.063 566.41,214.458 567.413,215.907C567.576,216.146 567.738,216.386 567.899,216.626C573.4,224.947 575.583,232.395 575.824,242.334C576.282,261.154 554.12,274.273 537.817,274.719C522.584,275.137 508.729,265.456 503,251.441C491.818,224.08 511.803,193.87 536.856,182.737C574.59,165.969 620.595,173.149 646.594,206.84C681.434,251.988 661.096,323.057 615.867,353.073C589.485,370.581 557.15,375.252 526.292,377.423C526.292,377.423 526.929,378.077 527.268,378.381C527.617,378.696 527.964,379.011 528.31,379.328C537.89,388.143 545.241,397.715 552.016,408.787C591.219,472.854 542.88,550.312 489.952,588.963C450.069,618.088 397.321,626.409 349.241,626.691C348.575,626.693 347.91,626.695 347.245,626.695C347.245,626.695 347.91,626.695 347.245,626.695" style="fill:white;fill-rule:nonzero;"/>
        </g>
    </g>
</svg>
